<?xml version="1.0" encoding="utf-8"?>
<svg xmlns="http://www.w3.org/2000/svg" xmlns:xlink="http://www.w3.org/1999/xlink" style="margin: auto; background: none; display: block; shape-rendering: auto;" width="270px" height="270px" viewBox="0 0 100 100" preserveAspectRatio="xMidYMid">
<g transform="rotate(0 50 50)">
  <rect x="49.5" y="20.5" rx="0" ry="0" width="1" height="11" fill="#1d3f72">
    <animate attributeName="opacity" values="1;0" keyTimes="0;1" dur="2.272727272727273s" begin="-2.1969696969696972s" repeatCount="indefinite"></animate>
  </rect>
</g><g transform="rotate(12 50 50)">
  <rect x="49.5" y="20.5" rx="0" ry="0" width="1" height="11" fill="#1d3f72">
    <animate attributeName="opacity" values="1;0" keyTimes="0;1" dur="2.272727272727273s" begin="-2.121212121212121s" repeatCount="indefinite"></animate>
  </rect>
</g><g transform="rotate(24 50 50)">
  <rect x="49.5" y="20.5" rx="0" ry="0" width="1" height="11" fill="#1d3f72">
    <animate attributeName="opacity" values="1;0" keyTimes="0;1" dur="2.272727272727273s" begin="-2.0454545454545454s" repeatCount="indefinite"></animate>
  </rect>
</g><g transform="rotate(36 50 50)">
  <rect x="49.5" y="20.5" rx="0" ry="0" width="1" height="11" fill="#1d3f72">
    <animate attributeName="opacity" values="1;0" keyTimes="0;1" dur="2.272727272727273s" begin="-1.9696969696969697s" repeatCount="indefinite"></animate>
  </rect>
</g><g transform="rotate(48 50 50)">
  <rect x="49.5" y="20.5" rx="0" ry="0" width="1" height="11" fill="#1d3f72">
    <animate attributeName="opacity" values="1;0" keyTimes="0;1" dur="2.272727272727273s" begin="-1.893939393939394s" repeatCount="indefinite"></animate>
  </rect>
</g><g transform="rotate(60 50 50)">
  <rect x="49.5" y="20.5" rx="0" ry="0" width="1" height="11" fill="#1d3f72">
    <animate attributeName="opacity" values="1;0" keyTimes="0;1" dur="2.272727272727273s" begin="-1.8181818181818183s" repeatCount="indefinite"></animate>
  </rect>
</g><g transform="rotate(72 50 50)">
  <rect x="49.5" y="20.5" rx="0" ry="0" width="1" height="11" fill="#1d3f72">
    <animate attributeName="opacity" values="1;0" keyTimes="0;1" dur="2.272727272727273s" begin="-1.7424242424242424s" repeatCount="indefinite"></animate>
  </rect>
</g><g transform="rotate(84 50 50)">
  <rect x="49.5" y="20.5" rx="0" ry="0" width="1" height="11" fill="#1d3f72">
    <animate attributeName="opacity" values="1;0" keyTimes="0;1" dur="2.272727272727273s" begin="-1.6666666666666667s" repeatCount="indefinite"></animate>
  </rect>
</g><g transform="rotate(96 50 50)">
  <rect x="49.5" y="20.5" rx="0" ry="0" width="1" height="11" fill="#1d3f72">
    <animate attributeName="opacity" values="1;0" keyTimes="0;1" dur="2.272727272727273s" begin="-1.590909090909091s" repeatCount="indefinite"></animate>
  </rect>
</g><g transform="rotate(108 50 50)">
  <rect x="49.5" y="20.5" rx="0" ry="0" width="1" height="11" fill="#1d3f72">
    <animate attributeName="opacity" values="1;0" keyTimes="0;1" dur="2.272727272727273s" begin="-1.5151515151515151s" repeatCount="indefinite"></animate>
  </rect>
</g><g transform="rotate(120 50 50)">
  <rect x="49.5" y="20.5" rx="0" ry="0" width="1" height="11" fill="#1d3f72">
    <animate attributeName="opacity" values="1;0" keyTimes="0;1" dur="2.272727272727273s" begin="-1.4393939393939394s" repeatCount="indefinite"></animate>
  </rect>
</g><g transform="rotate(132 50 50)">
  <rect x="49.5" y="20.5" rx="0" ry="0" width="1" height="11" fill="#1d3f72">
    <animate attributeName="opacity" values="1;0" keyTimes="0;1" dur="2.272727272727273s" begin="-1.3636363636363638s" repeatCount="indefinite"></animate>
  </rect>
</g><g transform="rotate(144 50 50)">
  <rect x="49.5" y="20.5" rx="0" ry="0" width="1" height="11" fill="#1d3f72">
    <animate attributeName="opacity" values="1;0" keyTimes="0;1" dur="2.272727272727273s" begin="-1.2878787878787878s" repeatCount="indefinite"></animate>
  </rect>
</g><g transform="rotate(156 50 50)">
  <rect x="49.5" y="20.5" rx="0" ry="0" width="1" height="11" fill="#1d3f72">
    <animate attributeName="opacity" values="1;0" keyTimes="0;1" dur="2.272727272727273s" begin="-1.2121212121212122s" repeatCount="indefinite"></animate>
  </rect>
</g><g transform="rotate(168 50 50)">
  <rect x="49.5" y="20.5" rx="0" ry="0" width="1" height="11" fill="#1d3f72">
    <animate attributeName="opacity" values="1;0" keyTimes="0;1" dur="2.272727272727273s" begin="-1.1363636363636365s" repeatCount="indefinite"></animate>
  </rect>
</g><g transform="rotate(180 50 50)">
  <rect x="49.5" y="20.5" rx="0" ry="0" width="1" height="11" fill="#1d3f72">
    <animate attributeName="opacity" values="1;0" keyTimes="0;1" dur="2.272727272727273s" begin="-1.0606060606060606s" repeatCount="indefinite"></animate>
  </rect>
</g><g transform="rotate(192 50 50)">
  <rect x="49.5" y="20.5" rx="0" ry="0" width="1" height="11" fill="#1d3f72">
    <animate attributeName="opacity" values="1;0" keyTimes="0;1" dur="2.272727272727273s" begin="-0.9848484848484849s" repeatCount="indefinite"></animate>
  </rect>
</g><g transform="rotate(204 50 50)">
  <rect x="49.5" y="20.5" rx="0" ry="0" width="1" height="11" fill="#1d3f72">
    <animate attributeName="opacity" values="1;0" keyTimes="0;1" dur="2.272727272727273s" begin="-0.9090909090909092s" repeatCount="indefinite"></animate>
  </rect>
</g><g transform="rotate(216 50 50)">
  <rect x="49.5" y="20.5" rx="0" ry="0" width="1" height="11" fill="#1d3f72">
    <animate attributeName="opacity" values="1;0" keyTimes="0;1" dur="2.272727272727273s" begin="-0.8333333333333334s" repeatCount="indefinite"></animate>
  </rect>
</g><g transform="rotate(228 50 50)">
  <rect x="49.5" y="20.5" rx="0" ry="0" width="1" height="11" fill="#1d3f72">
    <animate attributeName="opacity" values="1;0" keyTimes="0;1" dur="2.272727272727273s" begin="-0.7575757575757576s" repeatCount="indefinite"></animate>
  </rect>
</g><g transform="rotate(240 50 50)">
  <rect x="49.5" y="20.5" rx="0" ry="0" width="1" height="11" fill="#1d3f72">
    <animate attributeName="opacity" values="1;0" keyTimes="0;1" dur="2.272727272727273s" begin="-0.6818181818181819s" repeatCount="indefinite"></animate>
  </rect>
</g><g transform="rotate(252 50 50)">
  <rect x="49.5" y="20.5" rx="0" ry="0" width="1" height="11" fill="#1d3f72">
    <animate attributeName="opacity" values="1;0" keyTimes="0;1" dur="2.272727272727273s" begin="-0.6060606060606061s" repeatCount="indefinite"></animate>
  </rect>
</g><g transform="rotate(264 50 50)">
  <rect x="49.5" y="20.5" rx="0" ry="0" width="1" height="11" fill="#1d3f72">
    <animate attributeName="opacity" values="1;0" keyTimes="0;1" dur="2.272727272727273s" begin="-0.5303030303030303s" repeatCount="indefinite"></animate>
  </rect>
</g><g transform="rotate(276 50 50)">
  <rect x="49.5" y="20.5" rx="0" ry="0" width="1" height="11" fill="#1d3f72">
    <animate attributeName="opacity" values="1;0" keyTimes="0;1" dur="2.272727272727273s" begin="-0.4545454545454546s" repeatCount="indefinite"></animate>
  </rect>
</g><g transform="rotate(288 50 50)">
  <rect x="49.5" y="20.5" rx="0" ry="0" width="1" height="11" fill="#1d3f72">
    <animate attributeName="opacity" values="1;0" keyTimes="0;1" dur="2.272727272727273s" begin="-0.3787878787878788s" repeatCount="indefinite"></animate>
  </rect>
</g><g transform="rotate(300 50 50)">
  <rect x="49.5" y="20.5" rx="0" ry="0" width="1" height="11" fill="#1d3f72">
    <animate attributeName="opacity" values="1;0" keyTimes="0;1" dur="2.272727272727273s" begin="-0.30303030303030304s" repeatCount="indefinite"></animate>
  </rect>
</g><g transform="rotate(312 50 50)">
  <rect x="49.5" y="20.5" rx="0" ry="0" width="1" height="11" fill="#1d3f72">
    <animate attributeName="opacity" values="1;0" keyTimes="0;1" dur="2.272727272727273s" begin="-0.2272727272727273s" repeatCount="indefinite"></animate>
  </rect>
</g><g transform="rotate(324 50 50)">
  <rect x="49.5" y="20.5" rx="0" ry="0" width="1" height="11" fill="#1d3f72">
    <animate attributeName="opacity" values="1;0" keyTimes="0;1" dur="2.272727272727273s" begin="-0.15151515151515152s" repeatCount="indefinite"></animate>
  </rect>
</g><g transform="rotate(336 50 50)">
  <rect x="49.5" y="20.5" rx="0" ry="0" width="1" height="11" fill="#1d3f72">
    <animate attributeName="opacity" values="1;0" keyTimes="0;1" dur="2.272727272727273s" begin="-0.07575757575757576s" repeatCount="indefinite"></animate>
  </rect>
</g><g transform="rotate(348 50 50)">
  <rect x="49.5" y="20.5" rx="0" ry="0" width="1" height="11" fill="#1d3f72">
    <animate attributeName="opacity" values="1;0" keyTimes="0;1" dur="2.272727272727273s" begin="0s" repeatCount="indefinite"></animate>
  </rect>
</g>
<!-- [ldio] generated by https://loading.io/ --></svg>